<?xml version="1.0" encoding="utf-8" standalone="no"?>
<!DOCTYPE svg PUBLIC "-//W3C//DTD SVG 1.1//EN"
  "http://www.w3.org/Graphics/SVG/1.1/DTD/svg11.dtd">
<svg xmlns:xlink="http://www.w3.org/1999/xlink" width="1144.8pt" height="194.4pt" viewBox="0 0 1144.8 194.4" xmlns="http://www.w3.org/2000/svg" version="1.1">
 <metadata>
  <rdf:RDF xmlns:dc="http://purl.org/dc/elements/1.1/" xmlns:cc="http://creativecommons.org/ns#" xmlns:rdf="http://www.w3.org/1999/02/22-rdf-syntax-ns#">
   <cc:Work>
    <dc:type rdf:resource="http://purl.org/dc/dcmitype/StillImage"/>
    <dc:date>2026-07-04T03:25:07.931686</dc:date>
    <dc:format>image/svg+xml</dc:format>
    <dc:creator>
     <cc:Agent>
      <dc:title>Matplotlib v3.11.0, https://matplotlib.org/</dc:title>
     </cc:Agent>
    </dc:creator>
   </cc:Work>
  </rdf:RDF>
 </metadata>
 <defs>
  <style type="text/css">*{stroke-linejoin: round; stroke-linecap: butt}</style>
 </defs>
 <g id="figure_1">
  <g id="patch_1">
   <path d="M 0 194.4 
L 1144.8 194.4 
L 1144.8 0 
L 0 0 
z
" style="fill: #ffffff"/>
  </g>
  <g id="axes_1">
   <g id="patch_2">
    <path d="M 17.602454 130.95 
L 49.503313 130.95 
L 49.503313 55.95 
L 17.602454 55.95 
z
" clip-path="url(#p130fbfee38)" style="fill: #1f77b4; stroke: #ffffff; stroke-width: 1.2; stroke-linejoin: miter"/>
   </g>
   <g id="patch_3">
    <path d="M 52.277301 130.95 
L 84.17816 130.95 
L 84.17816 55.95 
L 52.277301 55.95 
z
" clip-path="url(#p130fbfee38)" style="fill: #1f77b4; stroke: #ffffff; stroke-width: 1.2; stroke-linejoin: miter"/>
   </g>
   <g id="patch_4">
    <path d="M 86.952147 130.95 
L 118.853006 130.95 
L 118.853006 55.95 
L 86.952147 55.95 
z
" clip-path="url(#p130fbfee38)" style="fill: #1f77b4; stroke: #ffffff; stroke-width: 1.2; stroke-linejoin: miter"/>
   </g>
   <g id="patch_5">
    <path d="M 121.626994 130.95 
L 153.527853 130.95 
L 153.527853 55.95 
L 121.626994 55.95 
z
" clip-path="url(#p130fbfee38)" style="fill: #e8a33d; stroke: #ffffff; stroke-width: 1.2; stroke-linejoin: miter"/>
   </g>
   <g id="patch_6">
    <path d="M 156.30184 130.95 
L 188.202699 130.95 
L 188.202699 55.95 
L 156.30184 55.95 
z
" clip-path="url(#p130fbfee38)" style="fill: #e8a33d; stroke: #ffffff; stroke-width: 1.2; stroke-linejoin: miter"/>
   </g>
   <g id="patch_7">
    <path d="M 190.976687 130.95 
L 222.877546 130.95 
L 222.877546 55.95 
L 190.976687 55.95 
z
" clip-path="url(#p130fbfee38)" style="fill: #e8a33d; stroke: #ffffff; stroke-width: 1.2; stroke-linejoin: miter"/>
   </g>
   <g id="patch_8">
    <path d="M 225.651534 130.95 
L 257.552393 130.95 
L 257.552393 55.95 
L 225.651534 55.95 
z
" clip-path="url(#p130fbfee38)" style="fill: #e8a33d; stroke: #ffffff; stroke-width: 1.2; stroke-linejoin: miter"/>
   </g>
   <g id="patch_9">
    <path d="M 260.32638 130.95 
L 292.227239 130.95 
L 292.227239 55.95 
L 260.32638 55.95 
z
" clip-path="url(#p130fbfee38)" style="fill: #e8a33d; stroke: #ffffff; stroke-width: 1.2; stroke-linejoin: miter"/>
   </g>
   <g id="patch_10">
    <path d="M 295.001227 130.95 
L 326.902086 130.95 
L 326.902086 55.95 
L 295.001227 55.95 
z
" clip-path="url(#p130fbfee38)" style="fill: #e8a33d; stroke: #ffffff; stroke-width: 1.2; stroke-linejoin: miter"/>
   </g>
   <g id="patch_11">
    <path d="M 329.676074 130.95 
L 361.576933 130.95 
L 361.576933 55.95 
L 329.676074 55.95 
z
" clip-path="url(#p130fbfee38)" style="fill: #1f77b4; stroke: #ffffff; stroke-width: 1.2; stroke-linejoin: miter"/>
   </g>
   <g id="patch_12">
    <path d="M 364.35092 130.95 
L 396.251779 130.95 
L 396.251779 55.95 
L 364.35092 55.95 
z
" clip-path="url(#p130fbfee38)" style="fill: #e8a33d; stroke: #ffffff; stroke-width: 1.2; stroke-linejoin: miter"/>
   </g>
   <g id="patch_13">
    <path d="M 399.025767 130.95 
L 430.926626 130.95 
L 430.926626 55.95 
L 399.025767 55.95 
z
" clip-path="url(#p130fbfee38)" style="fill: #e8a33d; stroke: #ffffff; stroke-width: 1.2; stroke-linejoin: miter"/>
   </g>
   <g id="patch_14">
    <path d="M 433.700613 130.95 
L 465.601472 130.95 
L 465.601472 55.95 
L 433.700613 55.95 
z
" clip-path="url(#p130fbfee38)" style="fill: #1f77b4; stroke: #ffffff; stroke-width: 1.2; stroke-linejoin: miter"/>
   </g>
   <g id="patch_15">
    <path d="M 468.37546 130.95 
L 500.276319 130.95 
L 500.276319 55.95 
L 468.37546 55.95 
z
" clip-path="url(#p130fbfee38)" style="fill: #1f77b4; stroke: #ffffff; stroke-width: 1.2; stroke-linejoin: miter"/>
   </g>
   <g id="patch_16">
    <path d="M 503.050307 130.95 
L 534.951166 130.95 
L 534.951166 55.95 
L 503.050307 55.95 
z
" clip-path="url(#p130fbfee38)" style="fill: #1f77b4; stroke: #ffffff; stroke-width: 1.2; stroke-linejoin: miter"/>
   </g>
   <g id="patch_17">
    <path d="M 537.725153 130.95 
L 569.626012 130.95 
L 569.626012 55.95 
L 537.725153 55.95 
z
" clip-path="url(#p130fbfee38)" style="fill: #e8a33d; stroke: #ffffff; stroke-width: 1.2; stroke-linejoin: miter"/>
   </g>
   <g id="patch_18">
    <path d="M 572.4 130.95 
L 604.300859 130.95 
L 604.300859 55.95 
L 572.4 55.95 
z
" clip-path="url(#p130fbfee38)" style="fill: #1f77b4; stroke: #ffffff; stroke-width: 1.2; stroke-linejoin: miter"/>
   </g>
   <g id="patch_19">
    <path d="M 607.074847 130.95 
L 638.975706 130.95 
L 638.975706 55.95 
L 607.074847 55.95 
z
" clip-path="url(#p130fbfee38)" style="fill: #1f77b4; stroke: #ffffff; stroke-width: 1.2; stroke-linejoin: miter"/>
   </g>
   <g id="patch_20">
    <path d="M 641.749693 130.95 
L 673.650552 130.95 
L 673.650552 55.95 
L 641.749693 55.95 
z
" clip-path="url(#p130fbfee38)" style="fill: #1f77b4; stroke: #ffffff; stroke-width: 1.2; stroke-linejoin: miter"/>
   </g>
   <g id="patch_21">
    <path d="M 676.42454 130.95 
L 708.325399 130.95 
L 708.325399 55.95 
L 676.42454 55.95 
z
" clip-path="url(#p130fbfee38)" style="fill: #1f77b4; stroke: #ffffff; stroke-width: 1.2; stroke-linejoin: miter"/>
   </g>
   <g id="patch_22">
    <path d="M 711.099387 130.95 
L 743.000245 130.95 
L 743.000245 55.95 
L 711.099387 55.95 
z
" clip-path="url(#p130fbfee38)" style="fill: #e8a33d; stroke: #ffffff; stroke-width: 1.2; stroke-linejoin: miter"/>
   </g>
   <g id="patch_23">
    <path d="M 745.774233 130.95 
L 777.675092 130.95 
L 777.675092 55.95 
L 745.774233 55.95 
z
" clip-path="url(#p130fbfee38)" style="fill: #e8a33d; stroke: #ffffff; stroke-width: 1.2; stroke-linejoin: miter"/>
   </g>
   <g id="patch_24">
    <path d="M 780.44908 130.95 
L 812.349939 130.95 
L 812.349939 55.95 
L 780.44908 55.95 
z
" clip-path="url(#p130fbfee38)" style="fill: #1f77b4; stroke: #ffffff; stroke-width: 1.2; stroke-linejoin: miter"/>
   </g>
   <g id="patch_25">
    <path d="M 815.123926 130.95 
L 847.024785 130.95 
L 847.024785 55.95 
L 815.123926 55.95 
z
" clip-path="url(#p130fbfee38)" style="fill: #e8a33d; stroke: #ffffff; stroke-width: 1.2; stroke-linejoin: miter"/>
   </g>
   <g id="patch_26">
    <path d="M 849.798773 130.95 
L 881.699632 130.95 
L 881.699632 55.95 
L 849.798773 55.95 
z
" clip-path="url(#p130fbfee38)" style="fill: #1f77b4; stroke: #ffffff; stroke-width: 1.2; stroke-linejoin: miter"/>
   </g>
   <g id="patch_27">
    <path d="M 884.47362 130.95 
L 916.374479 130.95 
L 916.374479 55.95 
L 884.47362 55.95 
z
" clip-path="url(#p130fbfee38)" style="fill: #1f77b4; stroke: #ffffff; stroke-width: 1.2; stroke-linejoin: miter"/>
   </g>
   <g id="patch_28">
    <path d="M 919.148466 130.95 
L 951.049325 130.95 
L 951.049325 55.95 
L 919.148466 55.95 
z
" clip-path="url(#p130fbfee38)" style="fill: #e8a33d; stroke: #ffffff; stroke-width: 1.2; stroke-linejoin: miter"/>
   </g>
   <g id="patch_29">
    <path d="M 953.823313 130.95 
L 985.724172 130.95 
L 985.724172 55.95 
L 953.823313 55.95 
z
" clip-path="url(#p130fbfee38)" style="fill: #e8a33d; stroke: #ffffff; stroke-width: 1.2; stroke-linejoin: miter"/>
   </g>
   <g id="patch_30">
    <path d="M 988.49816 130.95 
L 1020.399018 130.95 
L 1020.399018 55.95 
L 988.49816 55.95 
z
" clip-path="url(#p130fbfee38)" style="fill: #1f77b4; stroke: #ffffff; stroke-width: 1.2; stroke-linejoin: miter"/>
   </g>
   <g id="patch_31">
    <path d="M 1023.173006 130.95 
L 1055.073865 130.95 
L 1055.073865 55.95 
L 1023.173006 55.95 
z
" clip-path="url(#p130fbfee38)" style="fill: #e8a33d; stroke: #ffffff; stroke-width: 1.2; stroke-linejoin: miter"/>
   </g>
   <g id="patch_32">
    <path d="M 1057.847853 130.95 
L 1089.748712 130.95 
L 1089.748712 55.95 
L 1057.847853 55.95 
z
" clip-path="url(#p130fbfee38)" style="fill: #1f77b4; stroke: #ffffff; stroke-width: 1.2; stroke-linejoin: miter"/>
   </g>
   <g id="patch_33">
    <path d="M 1092.522699 130.95 
L 1124.423558 130.95 
L 1124.423558 55.95 
L 1092.522699 55.95 
z
" clip-path="url(#p130fbfee38)" style="fill: #e8a33d; stroke: #ffffff; stroke-width: 1.2; stroke-linejoin: miter"/>
   </g>
   <g id="text_1">
    <!-- E -->
    <g style="fill: #ffffff" transform="translate(29.454133 96.567187) scale(0.12 -0.12)">
     <defs>
      <path id="DejaVuSans-Bold-28" d="M 588 4666 
L 3834 4666 
L 3834 3756 
L 1791 3756 
L 1791 2888 
L 3713 2888 
L 3713 1978 
L 1791 1978 
L 1791 909 
L 3903 909 
L 3903 0 
L 588 0 
L 588 4666 
z
" transform="scale(0.015625)"/>
     </defs>
     <use xlink:href="#DejaVuSans-Bold-28"/>
    </g>
   </g>
   <g id="text_2">
    <!-- 1 -->
    <g style="fill: #555555" transform="translate(31.166946 149.398242) scale(0.075 -0.075)">
     <defs>
      <path id="DejaVuSans-14" d="M 794 531 
L 1825 531 
L 1825 4091 
L 703 3866 
L 703 4441 
L 1819 4666 
L 2450 4666 
L 2450 531 
L 3481 531 
L 3481 0 
L 794 0 
L 794 531 
z
" transform="scale(0.015625)"/>
     </defs>
     <use xlink:href="#DejaVuSans-14"/>
    </g>
   </g>
   <g id="text_3">
    <!-- E -->
    <g style="fill: #ffffff" transform="translate(64.12898 96.567187) scale(0.12 -0.12)">
     <use xlink:href="#DejaVuSans-Bold-28"/>
    </g>
   </g>
   <g id="text_4">
    <!-- 2 -->
    <g style="fill: #555555" transform="translate(65.841793 149.398242) scale(0.075 -0.075)">
     <defs>
      <path id="DejaVuSans-15" d="M 1228 531 
L 3431 531 
L 3431 0 
L 469 0 
L 469 531 
Q 828 903 1448 1529 
Q 2069 2156 2228 2338 
Q 2531 2678 2651 2914 
Q 2772 3150 2772 3378 
Q 2772 3750 2511 3984 
Q 2250 4219 1831 4219 
Q 1534 4219 1204 4116 
Q 875 4013 500 3803 
L 500 4441 
Q 881 4594 1212 4672 
Q 1544 4750 1819 4750 
Q 2544 4750 2975 4387 
Q 3406 4025 3406 3419 
Q 3406 3131 3298 2873 
Q 3191 2616 2906 2266 
Q 2828 2175 2409 1742 
Q 1991 1309 1228 531 
z
" transform="scale(0.015625)"/>
     </defs>
     <use xlink:href="#DejaVuSans-15"/>
    </g>
   </g>
   <g id="text_5">
    <!-- E -->
    <g style="fill: #ffffff" transform="translate(98.803827 96.567187) scale(0.12 -0.12)">
     <use xlink:href="#DejaVuSans-Bold-28"/>
    </g>
   </g>
   <g id="text_6">
    <!-- 3 -->
    <g style="fill: #555555" transform="translate(100.516639 149.398242) scale(0.075 -0.075)">
     <defs>
      <path id="DejaVuSans-16" d="M 2597 2516 
Q 3050 2419 3304 2112 
Q 3559 1806 3559 1356 
Q 3559 666 3084 287 
Q 2609 -91 1734 -91 
Q 1441 -91 1130 -33 
Q 819 25 488 141 
L 488 750 
Q 750 597 1062 519 
Q 1375 441 1716 441 
Q 2309 441 2620 675 
Q 2931 909 2931 1356 
Q 2931 1769 2642 2001 
Q 2353 2234 1838 2234 
L 1294 2234 
L 1294 2753 
L 1863 2753 
Q 2328 2753 2575 2939 
Q 2822 3125 2822 3475 
Q 2822 3834 2567 4026 
Q 2313 4219 1838 4219 
Q 1578 4219 1281 4162 
Q 984 4106 628 3988 
L 628 4550 
Q 988 4650 1302 4700 
Q 1616 4750 1894 4750 
Q 2613 4750 3031 4423 
Q 3450 4097 3450 3541 
Q 3450 3153 3228 2886 
Q 3006 2619 2597 2516 
z
" transform="scale(0.015625)"/>
     </defs>
     <use xlink:href="#DejaVuSans-16"/>
    </g>
   </g>
   <g id="text_7">
    <!-- O -->
    <g style="fill: #ffffff" transform="translate(132.476486 96.567187) scale(0.12 -0.12)">
     <defs>
      <path id="DejaVuSans-Bold-32" d="M 2719 3878 
Q 2169 3878 1866 3472 
Q 1563 3066 1563 2328 
Q 1563 1594 1866 1187 
Q 2169 781 2719 781 
Q 3272 781 3575 1187 
Q 3878 1594 3878 2328 
Q 3878 3066 3575 3472 
Q 3272 3878 2719 3878 
z
M 2719 4750 
Q 3844 4750 4481 4106 
Q 5119 3463 5119 2328 
Q 5119 1197 4481 553 
Q 3844 -91 2719 -91 
Q 1597 -91 958 553 
Q 319 1197 319 2328 
Q 319 3463 958 4106 
Q 1597 4750 2719 4750 
z
" transform="scale(0.015625)"/>
     </defs>
     <use xlink:href="#DejaVuSans-Bold-32"/>
    </g>
   </g>
   <g id="text_8">
    <!-- 4 -->
    <g style="fill: #555555" transform="translate(135.191486 149.398242) scale(0.075 -0.075)">
     <defs>
      <path id="DejaVuSans-17" d="M 2419 4116 
L 825 1625 
L 2419 1625 
L 2419 4116 
z
M 2253 4666 
L 3047 4666 
L 3047 1625 
L 3713 1625 
L 3713 1100 
L 3047 1100 
L 3047 0 
L 2419 0 
L 2419 1100 
L 313 1100 
L 313 1709 
L 2253 4666 
z
" transform="scale(0.015625)"/>
     </defs>
     <use xlink:href="#DejaVuSans-17"/>
    </g>
   </g>
   <g id="text_9">
    <!-- O -->
    <g style="fill: #ffffff" transform="translate(167.151332 96.567187) scale(0.12 -0.12)">
     <use xlink:href="#DejaVuSans-Bold-32"/>
    </g>
   </g>
   <g id="text_10">
    <!-- 5 -->
    <g style="fill: #555555" transform="translate(169.866332 149.398242) scale(0.075 -0.075)">
     <defs>
      <path id="DejaVuSans-18" d="M 691 4666 
L 3169 4666 
L 3169 4134 
L 1269 4134 
L 1269 2991 
Q 1406 3038 1543 3061 
Q 1681 3084 1819 3084 
Q 2600 3084 3056 2656 
Q 3513 2228 3513 1497 
Q 3513 744 3044 326 
Q 2575 -91 1722 -91 
Q 1428 -91 1123 -41 
Q 819 9 494 109 
L 494 744 
Q 775 591 1075 516 
Q 1375 441 1709 441 
Q 2250 441 2565 725 
Q 2881 1009 2881 1497 
Q 2881 1984 2565 2268 
Q 2250 2553 1709 2553 
Q 1456 2553 1204 2497 
Q 953 2441 691 2322 
L 691 4666 
z
" transform="scale(0.015625)"/>
     </defs>
     <use xlink:href="#DejaVuSans-18"/>
    </g>
   </g>
   <g id="text_11">
    <!-- O -->
    <g style="fill: #ffffff" transform="translate(201.826179 96.567187) scale(0.12 -0.12)">
     <use xlink:href="#DejaVuSans-Bold-32"/>
    </g>
   </g>
   <g id="text_12">
    <!-- 6 -->
    <g style="fill: #555555" transform="translate(204.541179 149.398242) scale(0.075 -0.075)">
     <defs>
      <path id="DejaVuSans-19" d="M 2113 2584 
Q 1688 2584 1439 2293 
Q 1191 2003 1191 1497 
Q 1191 994 1439 701 
Q 1688 409 2113 409 
Q 2538 409 2786 701 
Q 3034 994 3034 1497 
Q 3034 2003 2786 2293 
Q 2538 2584 2113 2584 
z
M 3366 4563 
L 3366 3988 
Q 3128 4100 2886 4159 
Q 2644 4219 2406 4219 
Q 1781 4219 1451 3797 
Q 1122 3375 1075 2522 
Q 1259 2794 1537 2939 
Q 1816 3084 2150 3084 
Q 2853 3084 3261 2657 
Q 3669 2231 3669 1497 
Q 3669 778 3244 343 
Q 2819 -91 2113 -91 
Q 1303 -91 875 529 
Q 447 1150 447 2328 
Q 447 3434 972 4092 
Q 1497 4750 2381 4750 
Q 2619 4750 2861 4703 
Q 3103 4656 3366 4563 
z
" transform="scale(0.015625)"/>
     </defs>
     <use xlink:href="#DejaVuSans-19"/>
    </g>
   </g>
   <g id="text_13">
    <!-- O -->
    <g style="fill: #ffffff" transform="translate(236.501026 96.567187) scale(0.12 -0.12)">
     <use xlink:href="#DejaVuSans-Bold-32"/>
    </g>
   </g>
   <g id="text_14">
    <!-- 7 -->
    <g style="fill: #555555" transform="translate(239.216026 149.398242) scale(0.075 -0.075)">
     <defs>
      <path id="DejaVuSans-1a" d="M 525 4666 
L 3525 4666 
L 3525 4397 
L 1831 0 
L 1172 0 
L 2766 4134 
L 525 4134 
L 525 4666 
z
" transform="scale(0.015625)"/>
     </defs>
     <use xlink:href="#DejaVuSans-1a"/>
    </g>
   </g>
   <g id="text_15">
    <!-- O -->
    <g style="fill: #ffffff" transform="translate(271.175872 96.567187) scale(0.12 -0.12)">
     <use xlink:href="#DejaVuSans-Bold-32"/>
    </g>
   </g>
   <g id="text_16">
    <!-- 8 -->
    <g style="fill: #555555" transform="translate(273.890872 149.398242) scale(0.075 -0.075)">
     <defs>
      <path id="DejaVuSans-1b" d="M 2034 2216 
Q 1584 2216 1326 1975 
Q 1069 1734 1069 1313 
Q 1069 891 1326 650 
Q 1584 409 2034 409 
Q 2484 409 2743 651 
Q 3003 894 3003 1313 
Q 3003 1734 2745 1975 
Q 2488 2216 2034 2216 
z
M 1403 2484 
Q 997 2584 770 2862 
Q 544 3141 544 3541 
Q 544 4100 942 4425 
Q 1341 4750 2034 4750 
Q 2731 4750 3128 4425 
Q 3525 4100 3525 3541 
Q 3525 3141 3298 2862 
Q 3072 2584 2669 2484 
Q 3125 2378 3379 2068 
Q 3634 1759 3634 1313 
Q 3634 634 3220 271 
Q 2806 -91 2034 -91 
Q 1263 -91 848 271 
Q 434 634 434 1313 
Q 434 1759 690 2068 
Q 947 2378 1403 2484 
z
M 1172 3481 
Q 1172 3119 1398 2916 
Q 1625 2713 2034 2713 
Q 2441 2713 2670 2916 
Q 2900 3119 2900 3481 
Q 2900 3844 2670 4047 
Q 2441 4250 2034 4250 
Q 1625 4250 1398 4047 
Q 1172 3844 1172 3481 
z
" transform="scale(0.015625)"/>
     </defs>
     <use xlink:href="#DejaVuSans-1b"/>
    </g>
   </g>
   <g id="text_17">
    <!-- O -->
    <g style="fill: #ffffff" transform="translate(305.850719 96.567187) scale(0.12 -0.12)">
     <use xlink:href="#DejaVuSans-Bold-32"/>
    </g>
   </g>
   <g id="text_18">
    <!-- 9 -->
    <g style="fill: #555555" transform="translate(308.565719 149.398242) scale(0.075 -0.075)">
     <defs>
      <path id="DejaVuSans-1c" d="M 703 97 
L 703 672 
Q 941 559 1184 500 
Q 1428 441 1663 441 
Q 2288 441 2617 861 
Q 2947 1281 2994 2138 
Q 2813 1869 2534 1725 
Q 2256 1581 1919 1581 
Q 1219 1581 811 2004 
Q 403 2428 403 3163 
Q 403 3881 828 4315 
Q 1253 4750 1959 4750 
Q 2769 4750 3195 4129 
Q 3622 3509 3622 2328 
Q 3622 1225 3098 567 
Q 2575 -91 1691 -91 
Q 1453 -91 1209 -44 
Q 966 3 703 97 
z
M 1959 2075 
Q 2384 2075 2632 2365 
Q 2881 2656 2881 3163 
Q 2881 3666 2632 3958 
Q 2384 4250 1959 4250 
Q 1534 4250 1286 3958 
Q 1038 3666 1038 3163 
Q 1038 2656 1286 2365 
Q 1534 2075 1959 2075 
z
" transform="scale(0.015625)"/>
     </defs>
     <use xlink:href="#DejaVuSans-1c"/>
    </g>
   </g>
   <g id="text_19">
    <!-- E -->
    <g style="fill: #ffffff" transform="translate(341.527753 96.567187) scale(0.12 -0.12)">
     <use xlink:href="#DejaVuSans-Bold-28"/>
    </g>
   </g>
   <g id="text_20">
    <!-- 10 -->
    <g style="fill: #555555" transform="translate(340.854628 149.398242) scale(0.075 -0.075)">
     <defs>
      <path id="DejaVuSans-13" d="M 2034 4250 
Q 1547 4250 1301 3770 
Q 1056 3291 1056 2328 
Q 1056 1369 1301 889 
Q 1547 409 2034 409 
Q 2525 409 2770 889 
Q 3016 1369 3016 2328 
Q 3016 3291 2770 3770 
Q 2525 4250 2034 4250 
z
M 2034 4750 
Q 2819 4750 3233 4129 
Q 3647 3509 3647 2328 
Q 3647 1150 3233 529 
Q 2819 -91 2034 -91 
Q 1250 -91 836 529 
Q 422 1150 422 2328 
Q 422 3509 836 4129 
Q 1250 4750 2034 4750 
z
" transform="scale(0.015625)"/>
     </defs>
     <use xlink:href="#DejaVuSans-14"/>
     <use xlink:href="#DejaVuSans-13" transform="translate(63.625 0)"/>
    </g>
   </g>
   <g id="text_21">
    <!-- O -->
    <g style="fill: #ffffff" transform="translate(375.200412 96.567187) scale(0.12 -0.12)">
     <use xlink:href="#DejaVuSans-Bold-32"/>
    </g>
   </g>
   <g id="text_22">
    <!-- 11 -->
    <g style="fill: #555555" transform="translate(375.529475 149.398242) scale(0.075 -0.075)">
     <use xlink:href="#DejaVuSans-14"/>
     <use xlink:href="#DejaVuSans-14" transform="translate(63.625 0)"/>
    </g>
   </g>
   <g id="text_23">
    <!-- O -->
    <g style="fill: #ffffff" transform="translate(409.875259 96.567187) scale(0.12 -0.12)">
     <use xlink:href="#DejaVuSans-Bold-32"/>
    </g>
   </g>
   <g id="text_24">
    <!-- 12 -->
    <g style="fill: #555555" transform="translate(410.204321 149.398242) scale(0.075 -0.075)">
     <use xlink:href="#DejaVuSans-14"/>
     <use xlink:href="#DejaVuSans-15" transform="translate(63.625 0)"/>
    </g>
   </g>
   <g id="text_25">
    <!-- E -->
    <g style="fill: #ffffff" transform="translate(445.552293 96.567187) scale(0.12 -0.12)">
     <use xlink:href="#DejaVuSans-Bold-28"/>
    </g>
   </g>
   <g id="text_26">
    <!-- 13 -->
    <g style="fill: #555555" transform="translate(444.879168 149.398242) scale(0.075 -0.075)">
     <use xlink:href="#DejaVuSans-14"/>
     <use xlink:href="#DejaVuSans-16" transform="translate(63.625 0)"/>
    </g>
   </g>
   <g id="text_27">
    <!-- E -->
    <g style="fill: #ffffff" transform="translate(480.22714 96.567187) scale(0.12 -0.12)">
     <use xlink:href="#DejaVuSans-Bold-28"/>
    </g>
   </g>
   <g id="text_28">
    <!-- 14 -->
    <g style="fill: #555555" transform="translate(479.554015 149.398242) scale(0.075 -0.075)">
     <use xlink:href="#DejaVuSans-14"/>
     <use xlink:href="#DejaVuSans-17" transform="translate(63.625 0)"/>
    </g>
   </g>
   <g id="text_29">
    <!-- E -->
    <g style="fill: #ffffff" transform="translate(514.901986 96.567187) scale(0.12 -0.12)">
     <use xlink:href="#DejaVuSans-Bold-28"/>
    </g>
   </g>
   <g id="text_30">
    <!-- 15 -->
    <g style="fill: #555555" transform="translate(514.228861 149.398242) scale(0.075 -0.075)">
     <use xlink:href="#DejaVuSans-14"/>
     <use xlink:href="#DejaVuSans-18" transform="translate(63.625 0)"/>
    </g>
   </g>
   <g id="text_31">
    <!-- O -->
    <g style="fill: #ffffff" transform="translate(548.574645 96.567187) scale(0.12 -0.12)">
     <use xlink:href="#DejaVuSans-Bold-32"/>
    </g>
   </g>
   <g id="text_32">
    <!-- 16 -->
    <g style="fill: #555555" transform="translate(548.903708 149.398242) scale(0.075 -0.075)">
     <use xlink:href="#DejaVuSans-14"/>
     <use xlink:href="#DejaVuSans-19" transform="translate(63.625 0)"/>
    </g>
   </g>
   <g id="text_33">
    <!-- E -->
    <g style="fill: #ffffff" transform="translate(584.251679 96.567187) scale(0.12 -0.12)">
     <use xlink:href="#DejaVuSans-Bold-28"/>
    </g>
   </g>
   <g id="text_34">
    <!-- 17 -->
    <g style="fill: #555555" transform="translate(583.578554 149.398242) scale(0.075 -0.075)">
     <use xlink:href="#DejaVuSans-14"/>
     <use xlink:href="#DejaVuSans-1a" transform="translate(63.625 0)"/>
    </g>
   </g>
   <g id="text_35">
    <!-- E -->
    <g style="fill: #ffffff" transform="translate(618.926526 96.567187) scale(0.12 -0.12)">
     <use xlink:href="#DejaVuSans-Bold-28"/>
    </g>
   </g>
   <g id="text_36">
    <!-- 18 -->
    <g style="fill: #555555" transform="translate(618.253401 149.398242) scale(0.075 -0.075)">
     <use xlink:href="#DejaVuSans-14"/>
     <use xlink:href="#DejaVuSans-1b" transform="translate(63.625 0)"/>
    </g>
   </g>
   <g id="text_37">
    <!-- E -->
    <g style="fill: #ffffff" transform="translate(653.601373 96.567187) scale(0.12 -0.12)">
     <use xlink:href="#DejaVuSans-Bold-28"/>
    </g>
   </g>
   <g id="text_38">
    <!-- 19 -->
    <g style="fill: #555555" transform="translate(652.928248 149.398242) scale(0.075 -0.075)">
     <use xlink:href="#DejaVuSans-14"/>
     <use xlink:href="#DejaVuSans-1c" transform="translate(63.625 0)"/>
    </g>
   </g>
   <g id="text_39">
    <!-- E -->
    <g style="fill: #ffffff" transform="translate(688.276219 96.567187) scale(0.12 -0.12)">
     <use xlink:href="#DejaVuSans-Bold-28"/>
    </g>
   </g>
   <g id="text_40">
    <!-- 20 -->
    <g style="fill: #555555" transform="translate(687.603094 149.398242) scale(0.075 -0.075)">
     <use xlink:href="#DejaVuSans-15"/>
     <use xlink:href="#DejaVuSans-13" transform="translate(63.625 0)"/>
    </g>
   </g>
   <g id="text_41">
    <!-- O -->
    <g style="fill: #ffffff" transform="translate(721.948878 96.567187) scale(0.12 -0.12)">
     <use xlink:href="#DejaVuSans-Bold-32"/>
    </g>
   </g>
   <g id="text_42">
    <!-- 21 -->
    <g style="fill: #555555" transform="translate(722.277941 149.398242) scale(0.075 -0.075)">
     <use xlink:href="#DejaVuSans-15"/>
     <use xlink:href="#DejaVuSans-14" transform="translate(63.625 0)"/>
    </g>
   </g>
   <g id="text_43">
    <!-- O -->
    <g style="fill: #ffffff" transform="translate(756.623725 96.567187) scale(0.12 -0.12)">
     <use xlink:href="#DejaVuSans-Bold-32"/>
    </g>
   </g>
   <g id="text_44">
    <!-- 22 -->
    <g style="fill: #555555" transform="translate(756.952788 149.398242) scale(0.075 -0.075)">
     <use xlink:href="#DejaVuSans-15"/>
     <use xlink:href="#DejaVuSans-15" transform="translate(63.625 0)"/>
    </g>
   </g>
   <g id="text_45">
    <!-- E -->
    <g style="fill: #ffffff" transform="translate(792.300759 96.567187) scale(0.12 -0.12)">
     <use xlink:href="#DejaVuSans-Bold-28"/>
    </g>
   </g>
   <g id="text_46">
    <!-- 23 -->
    <g style="fill: #555555" transform="translate(791.627634 149.398242) scale(0.075 -0.075)">
     <use xlink:href="#DejaVuSans-15"/>
     <use xlink:href="#DejaVuSans-16" transform="translate(63.625 0)"/>
    </g>
   </g>
   <g id="text_47">
    <!-- O -->
    <g style="fill: #ffffff" transform="translate(825.973418 96.567187) scale(0.12 -0.12)">
     <use xlink:href="#DejaVuSans-Bold-32"/>
    </g>
   </g>
   <g id="text_48">
    <!-- 24 -->
    <g style="fill: #555555" transform="translate(826.302481 149.398242) scale(0.075 -0.075)">
     <use xlink:href="#DejaVuSans-15"/>
     <use xlink:href="#DejaVuSans-17" transform="translate(63.625 0)"/>
    </g>
   </g>
   <g id="text_49">
    <!-- E -->
    <g style="fill: #ffffff" transform="translate(861.650452 96.567187) scale(0.12 -0.12)">
     <use xlink:href="#DejaVuSans-Bold-28"/>
    </g>
   </g>
   <g id="text_50">
    <!-- 25 -->
    <g style="fill: #555555" transform="translate(860.977327 149.398242) scale(0.075 -0.075)">
     <use xlink:href="#DejaVuSans-15"/>
     <use xlink:href="#DejaVuSans-18" transform="translate(63.625 0)"/>
    </g>
   </g>
   <g id="text_51">
    <!-- E -->
    <g style="fill: #ffffff" transform="translate(896.325299 96.567187) scale(0.12 -0.12)">
     <use xlink:href="#DejaVuSans-Bold-28"/>
    </g>
   </g>
   <g id="text_52">
    <!-- 26 -->
    <g style="fill: #555555" transform="translate(895.652174 149.398242) scale(0.075 -0.075)">
     <use xlink:href="#DejaVuSans-15"/>
     <use xlink:href="#DejaVuSans-19" transform="translate(63.625 0)"/>
    </g>
   </g>
   <g id="text_53">
    <!-- O -->
    <g style="fill: #ffffff" transform="translate(929.997958 96.567187) scale(0.12 -0.12)">
     <use xlink:href="#DejaVuSans-Bold-32"/>
    </g>
   </g>
   <g id="text_54">
    <!-- 27 -->
    <g style="fill: #555555" transform="translate(930.327021 149.398242) scale(0.075 -0.075)">
     <use xlink:href="#DejaVuSans-15"/>
     <use xlink:href="#DejaVuSans-1a" transform="translate(63.625 0)"/>
    </g>
   </g>
   <g id="text_55">
    <!-- O -->
    <g style="fill: #ffffff" transform="translate(964.672805 96.567187) scale(0.12 -0.12)">
     <use xlink:href="#DejaVuSans-Bold-32"/>
    </g>
   </g>
   <g id="text_56">
    <!-- 28 -->
    <g style="fill: #555555" transform="translate(965.001867 149.398242) scale(0.075 -0.075)">
     <use xlink:href="#DejaVuSans-15"/>
     <use xlink:href="#DejaVuSans-1b" transform="translate(63.625 0)"/>
    </g>
   </g>
   <g id="text_57">
    <!-- E -->
    <g style="fill: #ffffff" transform="translate(1000.349839 96.567187) scale(0.12 -0.12)">
     <use xlink:href="#DejaVuSans-Bold-28"/>
    </g>
   </g>
   <g id="text_58">
    <!-- 29 -->
    <g style="fill: #555555" transform="translate(999.676714 149.398242) scale(0.075 -0.075)">
     <use xlink:href="#DejaVuSans-15"/>
     <use xlink:href="#DejaVuSans-1c" transform="translate(63.625 0)"/>
    </g>
   </g>
   <g id="text_59">
    <!-- O -->
    <g style="fill: #ffffff" transform="translate(1034.022498 96.567187) scale(0.12 -0.12)">
     <use xlink:href="#DejaVuSans-Bold-32"/>
    </g>
   </g>
   <g id="text_60">
    <!-- 30 -->
    <g style="fill: #555555" transform="translate(1034.351561 149.398242) scale(0.075 -0.075)">
     <use xlink:href="#DejaVuSans-16"/>
     <use xlink:href="#DejaVuSans-13" transform="translate(63.625 0)"/>
    </g>
   </g>
   <g id="text_61">
    <!-- E -->
    <g style="fill: #ffffff" transform="translate(1069.699532 96.567187) scale(0.12 -0.12)">
     <use xlink:href="#DejaVuSans-Bold-28"/>
    </g>
   </g>
   <g id="text_62">
    <!-- 31 -->
    <g style="fill: #555555" transform="translate(1069.026407 149.398242) scale(0.075 -0.075)">
     <use xlink:href="#DejaVuSans-16"/>
     <use xlink:href="#DejaVuSans-14" transform="translate(63.625 0)"/>
    </g>
   </g>
   <g id="text_63">
    <!-- O -->
    <g style="fill: #ffffff" transform="translate(1103.372191 96.567187) scale(0.12 -0.12)">
     <use xlink:href="#DejaVuSans-Bold-32"/>
    </g>
   </g>
   <g id="text_64">
    <!-- 32 -->
    <g style="fill: #555555" transform="translate(1103.701254 149.398242) scale(0.075 -0.075)">
     <use xlink:href="#DejaVuSans-16"/>
     <use xlink:href="#DejaVuSans-15" transform="translate(63.625 0)"/>
    </g>
   </g>
   <g id="text_65">
    <!-- King Wen's parity-class string: 16 E / 16 O, exactly 15 alternations (red marks) — forced by C1–C5, not a design choice -->
    <g transform="translate(215.55 27.567656) scale(0.12 -0.12)">
     <defs>
      <path id="DejaVuSans-2e" d="M 628 4666 
L 1259 4666 
L 1259 2694 
L 3353 4666 
L 4166 4666 
L 1850 2491 
L 4331 0 
L 3500 0 
L 1259 2247 
L 1259 0 
L 628 0 
L 628 4666 
z
" transform="scale(0.015625)"/>
      <path id="DejaVuSans-4c" d="M 603 3500 
L 1178 3500 
L 1178 0 
L 603 0 
L 603 3500 
z
M 603 4863 
L 1178 4863 
L 1178 4134 
L 603 4134 
L 603 4863 
z
" transform="scale(0.015625)"/>
      <path id="DejaVuSans-51" d="M 3513 2113 
L 3513 0 
L 2938 0 
L 2938 2094 
Q 2938 2591 2744 2837 
Q 2550 3084 2163 3084 
Q 1697 3084 1428 2787 
Q 1159 2491 1159 1978 
L 1159 0 
L 581 0 
L 581 3500 
L 1159 3500 
L 1159 2956 
Q 1366 3272 1645 3428 
Q 1925 3584 2291 3584 
Q 2894 3584 3203 3211 
Q 3513 2838 3513 2113 
z
" transform="scale(0.015625)"/>
      <path id="DejaVuSans-4a" d="M 2906 1791 
Q 2906 2416 2648 2759 
Q 2391 3103 1925 3103 
Q 1463 3103 1205 2759 
Q 947 2416 947 1791 
Q 947 1169 1205 825 
Q 1463 481 1925 481 
Q 2391 481 2648 825 
Q 2906 1169 2906 1791 
z
M 3481 434 
Q 3481 -459 3084 -895 
Q 2688 -1331 1869 -1331 
Q 1566 -1331 1297 -1286 
Q 1028 -1241 775 -1147 
L 775 -588 
Q 1028 -725 1275 -790 
Q 1522 -856 1778 -856 
Q 2344 -856 2625 -561 
Q 2906 -266 2906 331 
L 2906 616 
Q 2728 306 2450 153 
Q 2172 0 1784 0 
Q 1141 0 747 490 
Q 353 981 353 1791 
Q 353 2603 747 3093 
Q 1141 3584 1784 3584 
Q 2172 3584 2450 3431 
Q 2728 3278 2906 2969 
L 2906 3500 
L 3481 3500 
L 3481 434 
z
" transform="scale(0.015625)"/>
      <path id="DejaVuSans-3" transform="scale(0.015625)"/>
      <path id="DejaVuSans-3a" d="M 213 4666 
L 850 4666 
L 1831 722 
L 2809 4666 
L 3519 4666 
L 4500 722 
L 5478 4666 
L 6119 4666 
L 4947 0 
L 4153 0 
L 3169 4050 
L 2175 0 
L 1381 0 
L 213 4666 
z
" transform="scale(0.015625)"/>
      <path id="DejaVuSans-48" d="M 3597 1894 
L 3597 1613 
L 953 1613 
Q 991 1019 1311 708 
Q 1631 397 2203 397 
Q 2534 397 2845 478 
Q 3156 559 3463 722 
L 3463 178 
Q 3153 47 2828 -22 
Q 2503 -91 2169 -91 
Q 1331 -91 842 396 
Q 353 884 353 1716 
Q 353 2575 817 3079 
Q 1281 3584 2069 3584 
Q 2775 3584 3186 3129 
Q 3597 2675 3597 1894 
z
M 3022 2063 
Q 3016 2534 2758 2815 
Q 2500 3097 2075 3097 
Q 1594 3097 1305 2825 
Q 1016 2553 972 2059 
L 3022 2063 
z
" transform="scale(0.015625)"/>
      <path id="DejaVuSans-a" d="M 1147 4666 
L 1147 2931 
L 616 2931 
L 616 4666 
L 1147 4666 
z
" transform="scale(0.015625)"/>
      <path id="DejaVuSans-56" d="M 2834 3397 
L 2834 2853 
Q 2591 2978 2328 3040 
Q 2066 3103 1784 3103 
Q 1356 3103 1142 2972 
Q 928 2841 928 2578 
Q 928 2378 1081 2264 
Q 1234 2150 1697 2047 
L 1894 2003 
Q 2506 1872 2764 1633 
Q 3022 1394 3022 966 
Q 3022 478 2636 193 
Q 2250 -91 1575 -91 
Q 1294 -91 989 -36 
Q 684 19 347 128 
L 347 722 
Q 666 556 975 473 
Q 1284 391 1588 391 
Q 1994 391 2212 530 
Q 2431 669 2431 922 
Q 2431 1156 2273 1281 
Q 2116 1406 1581 1522 
L 1381 1569 
Q 847 1681 609 1914 
Q 372 2147 372 2553 
Q 372 3047 722 3315 
Q 1072 3584 1716 3584 
Q 2034 3584 2315 3537 
Q 2597 3491 2834 3397 
z
" transform="scale(0.015625)"/>
      <path id="DejaVuSans-53" d="M 1159 525 
L 1159 -1331 
L 581 -1331 
L 581 3500 
L 1159 3500 
L 1159 2969 
Q 1341 3281 1617 3432 
Q 1894 3584 2278 3584 
Q 2916 3584 3314 3078 
Q 3713 2572 3713 1747 
Q 3713 922 3314 415 
Q 2916 -91 2278 -91 
Q 1894 -91 1617 61 
Q 1341 213 1159 525 
z
M 3116 1747 
Q 3116 2381 2855 2742 
Q 2594 3103 2138 3103 
Q 1681 3103 1420 2742 
Q 1159 2381 1159 1747 
Q 1159 1113 1420 752 
Q 1681 391 2138 391 
Q 2594 391 2855 752 
Q 3116 1113 3116 1747 
z
" transform="scale(0.015625)"/>
      <path id="DejaVuSans-44" d="M 2194 1759 
Q 1497 1759 1228 1600 
Q 959 1441 959 1056 
Q 959 750 1161 570 
Q 1363 391 1709 391 
Q 2188 391 2477 730 
Q 2766 1069 2766 1631 
L 2766 1759 
L 2194 1759 
z
M 3341 1997 
L 3341 0 
L 2766 0 
L 2766 531 
Q 2569 213 2275 61 
Q 1981 -91 1556 -91 
Q 1019 -91 701 211 
Q 384 513 384 1019 
Q 384 1609 779 1909 
Q 1175 2209 1959 2209 
L 2766 2209 
L 2766 2266 
Q 2766 2663 2505 2880 
Q 2244 3097 1772 3097 
Q 1472 3097 1187 3025 
Q 903 2953 641 2809 
L 641 3341 
Q 956 3463 1253 3523 
Q 1550 3584 1831 3584 
Q 2591 3584 2966 3190 
Q 3341 2797 3341 1997 
z
" transform="scale(0.015625)"/>
      <path id="DejaVuSans-55" d="M 2631 2963 
Q 2534 3019 2420 3045 
Q 2306 3072 2169 3072 
Q 1681 3072 1420 2755 
Q 1159 2438 1159 1844 
L 1159 0 
L 581 0 
L 581 3500 
L 1159 3500 
L 1159 2956 
Q 1341 3275 1631 3429 
Q 1922 3584 2338 3584 
Q 2397 3584 2469 3576 
Q 2541 3569 2628 3553 
L 2631 2963 
z
" transform="scale(0.015625)"/>
      <path id="DejaVuSans-57" d="M 1172 4494 
L 1172 3500 
L 2356 3500 
L 2356 3053 
L 1172 3053 
L 1172 1153 
Q 1172 725 1289 603 
Q 1406 481 1766 481 
L 2356 481 
L 2356 0 
L 1766 0 
Q 1100 0 847 248 
Q 594 497 594 1153 
L 594 3053 
L 172 3053 
L 172 3500 
L 594 3500 
L 594 4494 
L 1172 4494 
z
" transform="scale(0.015625)"/>
      <path id="DejaVuSans-5c" d="M 2059 -325 
Q 1816 -950 1584 -1140 
Q 1353 -1331 966 -1331 
L 506 -1331 
L 506 -850 
L 844 -850 
Q 1081 -850 1212 -737 
Q 1344 -625 1503 -206 
L 1606 56 
L 191 3500 
L 800 3500 
L 1894 763 
L 2988 3500 
L 3597 3500 
L 2059 -325 
z
" transform="scale(0.015625)"/>
      <path id="DejaVuSans-10" d="M 313 2009 
L 1997 2009 
L 1997 1497 
L 313 1497 
L 313 2009 
z
" transform="scale(0.015625)"/>
      <path id="DejaVuSans-46" d="M 3122 3366 
L 3122 2828 
Q 2878 2963 2633 3030 
Q 2388 3097 2138 3097 
Q 1578 3097 1268 2742 
Q 959 2388 959 1747 
Q 959 1106 1268 751 
Q 1578 397 2138 397 
Q 2388 397 2633 464 
Q 2878 531 3122 666 
L 3122 134 
Q 2881 22 2623 -34 
Q 2366 -91 2075 -91 
Q 1284 -91 818 406 
Q 353 903 353 1747 
Q 353 2603 823 3093 
Q 1294 3584 2113 3584 
Q 2378 3584 2631 3529 
Q 2884 3475 3122 3366 
z
" transform="scale(0.015625)"/>
      <path id="DejaVuSans-4f" d="M 603 4863 
L 1178 4863 
L 1178 0 
L 603 0 
L 603 4863 
z
" transform="scale(0.015625)"/>
      <path id="DejaVuSans-1d" d="M 750 794 
L 1409 794 
L 1409 0 
L 750 0 
L 750 794 
z
M 750 3309 
L 1409 3309 
L 1409 2516 
L 750 2516 
L 750 3309 
z
" transform="scale(0.015625)"/>
      <path id="DejaVuSans-28" d="M 628 4666 
L 3578 4666 
L 3578 4134 
L 1259 4134 
L 1259 2753 
L 3481 2753 
L 3481 2222 
L 1259 2222 
L 1259 531 
L 3634 531 
L 3634 0 
L 628 0 
L 628 4666 
z
" transform="scale(0.015625)"/>
      <path id="DejaVuSans-12" d="M 1625 4666 
L 2156 4666 
L 531 -594 
L 0 -594 
L 1625 4666 
z
" transform="scale(0.015625)"/>
      <path id="DejaVuSans-32" d="M 2522 4238 
Q 1834 4238 1429 3725 
Q 1025 3213 1025 2328 
Q 1025 1447 1429 934 
Q 1834 422 2522 422 
Q 3209 422 3611 934 
Q 4013 1447 4013 2328 
Q 4013 3213 3611 3725 
Q 3209 4238 2522 4238 
z
M 2522 4750 
Q 3503 4750 4090 4092 
Q 4678 3434 4678 2328 
Q 4678 1225 4090 567 
Q 3503 -91 2522 -91 
Q 1538 -91 948 565 
Q 359 1222 359 2328 
Q 359 3434 948 4092 
Q 1538 4750 2522 4750 
z
" transform="scale(0.015625)"/>
      <path id="DejaVuSans-f" d="M 750 794 
L 1409 794 
L 1409 256 
L 897 -744 
L 494 -744 
L 750 256 
L 750 794 
z
" transform="scale(0.015625)"/>
      <path id="DejaVuSans-5b" d="M 3513 3500 
L 2247 1797 
L 3578 0 
L 2900 0 
L 1881 1375 
L 863 0 
L 184 0 
L 1544 1831 
L 300 3500 
L 978 3500 
L 1906 2253 
L 2834 3500 
L 3513 3500 
z
" transform="scale(0.015625)"/>
      <path id="DejaVuSans-52" d="M 1959 3097 
Q 1497 3097 1228 2736 
Q 959 2375 959 1747 
Q 959 1119 1226 758 
Q 1494 397 1959 397 
Q 2419 397 2687 759 
Q 2956 1122 2956 1747 
Q 2956 2369 2687 2733 
Q 2419 3097 1959 3097 
z
M 1959 3584 
Q 2709 3584 3137 3096 
Q 3566 2609 3566 1747 
Q 3566 888 3137 398 
Q 2709 -91 1959 -91 
Q 1206 -91 779 398 
Q 353 888 353 1747 
Q 353 2609 779 3096 
Q 1206 3584 1959 3584 
z
" transform="scale(0.015625)"/>
      <path id="DejaVuSans-b" d="M 1984 4856 
Q 1566 4138 1362 3434 
Q 1159 2731 1159 2009 
Q 1159 1288 1364 580 
Q 1569 -128 1984 -844 
L 1484 -844 
Q 1016 -109 783 600 
Q 550 1309 550 2009 
Q 550 2706 781 3412 
Q 1013 4119 1484 4856 
L 1984 4856 
z
" transform="scale(0.015625)"/>
      <path id="DejaVuSans-47" d="M 2906 2969 
L 2906 4863 
L 3481 4863 
L 3481 0 
L 2906 0 
L 2906 525 
Q 2725 213 2448 61 
Q 2172 -91 1784 -91 
Q 1150 -91 751 415 
Q 353 922 353 1747 
Q 353 2572 751 3078 
Q 1150 3584 1784 3584 
Q 2172 3584 2448 3432 
Q 2725 3281 2906 2969 
z
M 947 1747 
Q 947 1113 1208 752 
Q 1469 391 1925 391 
Q 2381 391 2643 752 
Q 2906 1113 2906 1747 
Q 2906 2381 2643 2742 
Q 2381 3103 1925 3103 
Q 1469 3103 1208 2742 
Q 947 2381 947 1747 
z
" transform="scale(0.015625)"/>
      <path id="DejaVuSans-50" d="M 3328 2828 
Q 3544 3216 3844 3400 
Q 4144 3584 4550 3584 
Q 5097 3584 5394 3201 
Q 5691 2819 5691 2113 
L 5691 0 
L 5113 0 
L 5113 2094 
Q 5113 2597 4934 2840 
Q 4756 3084 4391 3084 
Q 3944 3084 3684 2787 
Q 3425 2491 3425 1978 
L 3425 0 
L 2847 0 
L 2847 2094 
Q 2847 2600 2669 2842 
Q 2491 3084 2119 3084 
Q 1678 3084 1418 2786 
Q 1159 2488 1159 1978 
L 1159 0 
L 581 0 
L 581 3500 
L 1159 3500 
L 1159 2956 
Q 1356 3278 1631 3431 
Q 1906 3584 2284 3584 
Q 2666 3584 2933 3390 
Q 3200 3197 3328 2828 
z
" transform="scale(0.015625)"/>
      <path id="DejaVuSans-4e" d="M 581 4863 
L 1159 4863 
L 1159 1991 
L 2875 3500 
L 3609 3500 
L 1753 1863 
L 3688 0 
L 2938 0 
L 1159 1709 
L 1159 0 
L 581 0 
L 581 4863 
z
" transform="scale(0.015625)"/>
      <path id="DejaVuSans-c" d="M 513 4856 
L 1013 4856 
Q 1481 4119 1714 3412 
Q 1947 2706 1947 2009 
Q 1947 1309 1714 600 
Q 1481 -109 1013 -844 
L 513 -844 
Q 928 -128 1133 580 
Q 1338 1288 1338 2009 
Q 1338 2731 1133 3434 
Q 928 4138 513 4856 
z
" transform="scale(0.015625)"/>
      <path id="DejaVuSans-af6" d="M 313 1978 
L 6088 1978 
L 6088 1528 
L 313 1528 
L 313 1978 
z
" transform="scale(0.015625)"/>
      <path id="DejaVuSans-49" d="M 2375 4863 
L 2375 4384 
L 1825 4384 
Q 1516 4384 1395 4259 
Q 1275 4134 1275 3809 
L 1275 3500 
L 2222 3500 
L 2222 3053 
L 1275 3053 
L 1275 0 
L 697 0 
L 697 3053 
L 147 3053 
L 147 3500 
L 697 3500 
L 697 3744 
Q 697 4328 969 4595 
Q 1241 4863 1831 4863 
L 2375 4863 
z
" transform="scale(0.015625)"/>
      <path id="DejaVuSans-45" d="M 3116 1747 
Q 3116 2381 2855 2742 
Q 2594 3103 2138 3103 
Q 1681 3103 1420 2742 
Q 1159 2381 1159 1747 
Q 1159 1113 1420 752 
Q 1681 391 2138 391 
Q 2594 391 2855 752 
Q 3116 1113 3116 1747 
z
M 1159 2969 
Q 1341 3281 1617 3432 
Q 1894 3584 2278 3584 
Q 2916 3584 3314 3078 
Q 3713 2572 3713 1747 
Q 3713 922 3314 415 
Q 2916 -91 2278 -91 
Q 1894 -91 1617 61 
Q 1341 213 1159 525 
L 1159 0 
L 581 0 
L 581 4863 
L 1159 4863 
L 1159 2969 
z
" transform="scale(0.015625)"/>
      <path id="DejaVuSans-26" d="M 4122 4306 
L 4122 3641 
Q 3803 3938 3442 4084 
Q 3081 4231 2675 4231 
Q 1875 4231 1450 3742 
Q 1025 3253 1025 2328 
Q 1025 1406 1450 917 
Q 1875 428 2675 428 
Q 3081 428 3442 575 
Q 3803 722 4122 1019 
L 4122 359 
Q 3791 134 3420 21 
Q 3050 -91 2638 -91 
Q 1578 -91 968 557 
Q 359 1206 359 2328 
Q 359 3453 968 4101 
Q 1578 4750 2638 4750 
Q 3056 4750 3426 4639 
Q 3797 4528 4122 4306 
z
" transform="scale(0.015625)"/>
      <path id="DejaVuSans-af5" d="M 313 1978 
L 2888 1978 
L 2888 1528 
L 313 1528 
L 313 1978 
z
" transform="scale(0.015625)"/>
      <path id="DejaVuSans-4b" d="M 3513 2113 
L 3513 0 
L 2938 0 
L 2938 2094 
Q 2938 2591 2744 2837 
Q 2550 3084 2163 3084 
Q 1697 3084 1428 2787 
Q 1159 2491 1159 1978 
L 1159 0 
L 581 0 
L 581 4863 
L 1159 4863 
L 1159 2956 
Q 1366 3272 1645 3428 
Q 1925 3584 2291 3584 
Q 2894 3584 3203 3211 
Q 3513 2838 3513 2113 
z
" transform="scale(0.015625)"/>
     </defs>
     <use xlink:href="#DejaVuSans-2e"/>
     <use xlink:href="#DejaVuSans-4c" transform="translate(65.578125 0)"/>
     <use xlink:href="#DejaVuSans-51" transform="translate(93.359375 0)"/>
     <use xlink:href="#DejaVuSans-4a" transform="translate(156.734375 0)"/>
     <use xlink:href="#DejaVuSans-3" transform="translate(220.21875 0)"/>
     <use xlink:href="#DejaVuSans-3a" transform="translate(252 0)"/>
     <use xlink:href="#DejaVuSans-48" transform="translate(345.015625 0)"/>
     <use xlink:href="#DejaVuSans-51" transform="translate(406.546875 0)"/>
     <use xlink:href="#DejaVuSans-a" transform="translate(469.921875 0)"/>
     <use xlink:href="#DejaVuSans-56" transform="translate(497.40625 0)"/>
     <use xlink:href="#DejaVuSans-3" transform="translate(549.5 0)"/>
     <use xlink:href="#DejaVuSans-53" transform="translate(581.28125 0)"/>
     <use xlink:href="#DejaVuSans-44" transform="translate(644.765625 0)"/>
     <use xlink:href="#DejaVuSans-55" transform="translate(706.046875 0)"/>
     <use xlink:href="#DejaVuSans-4c" transform="translate(747.15625 0)"/>
     <use xlink:href="#DejaVuSans-57" transform="translate(774.9375 0)"/>
     <use xlink:href="#DejaVuSans-5c" transform="translate(814.140625 0)"/>
     <use xlink:href="#DejaVuSans-10" transform="translate(871.578125 0)"/>
     <use xlink:href="#DejaVuSans-46" transform="translate(907.65625 0)"/>
     <use xlink:href="#DejaVuSans-4f" transform="translate(962.640625 0)"/>
     <use xlink:href="#DejaVuSans-44" transform="translate(990.421875 0)"/>
     <use xlink:href="#DejaVuSans-56" transform="translate(1051.703125 0)"/>
     <use xlink:href="#DejaVuSans-56" transform="translate(1103.796875 0)"/>
     <use xlink:href="#DejaVuSans-3" transform="translate(1155.890625 0)"/>
     <use xlink:href="#DejaVuSans-56" transform="translate(1187.671875 0)"/>
     <use xlink:href="#DejaVuSans-57" transform="translate(1239.765625 0)"/>
     <use xlink:href="#DejaVuSans-55" transform="translate(1278.96875 0)"/>
     <use xlink:href="#DejaVuSans-4c" transform="translate(1320.078125 0)"/>
     <use xlink:href="#DejaVuSans-51" transform="translate(1347.859375 0)"/>
     <use xlink:href="#DejaVuSans-4a" transform="translate(1411.234375 0)"/>
     <use xlink:href="#DejaVuSans-1d" transform="translate(1474.71875 0)"/>
     <use xlink:href="#DejaVuSans-3" transform="translate(1508.40625 0)"/>
     <use xlink:href="#DejaVuSans-14" transform="translate(1540.1875 0)"/>
     <use xlink:href="#DejaVuSans-19" transform="translate(1603.8125 0)"/>
     <use xlink:href="#DejaVuSans-3" transform="translate(1667.4375 0)"/>
     <use xlink:href="#DejaVuSans-28" transform="translate(1699.21875 0)"/>
     <use xlink:href="#DejaVuSans-3" transform="translate(1762.40625 0)"/>
     <use xlink:href="#DejaVuSans-12" transform="translate(1794.1875 0)"/>
     <use xlink:href="#DejaVuSans-3" transform="translate(1827.875 0)"/>
     <use xlink:href="#DejaVuSans-14" transform="translate(1859.65625 0)"/>
     <use xlink:href="#DejaVuSans-19" transform="translate(1923.28125 0)"/>
     <use xlink:href="#DejaVuSans-3" transform="translate(1986.90625 0)"/>
     <use xlink:href="#DejaVuSans-32" transform="translate(2018.6875 0)"/>
     <use xlink:href="#DejaVuSans-f" transform="translate(2097.40625 0)"/>
     <use xlink:href="#DejaVuSans-3" transform="translate(2129.1875 0)"/>
     <use xlink:href="#DejaVuSans-48" transform="translate(2160.96875 0)"/>
     <use xlink:href="#DejaVuSans-5b" transform="translate(2220.75 0)"/>
     <use xlink:href="#DejaVuSans-44" transform="translate(2279.9375 0)"/>
     <use xlink:href="#DejaVuSans-46" transform="translate(2341.21875 0)"/>
     <use xlink:href="#DejaVuSans-57" transform="translate(2396.203125 0)"/>
     <use xlink:href="#DejaVuSans-4f" transform="translate(2435.40625 0)"/>
     <use xlink:href="#DejaVuSans-5c" transform="translate(2463.1875 0)"/>
     <use xlink:href="#DejaVuSans-3" transform="translate(2522.375 0)"/>
     <use xlink:href="#DejaVuSans-14" transform="translate(2554.15625 0)"/>
     <use xlink:href="#DejaVuSans-18" transform="translate(2617.78125 0)"/>
     <use xlink:href="#DejaVuSans-3" transform="translate(2681.40625 0)"/>
     <use xlink:href="#DejaVuSans-44" transform="translate(2713.1875 0)"/>
     <use xlink:href="#DejaVuSans-4f" transform="translate(2774.46875 0)"/>
     <use xlink:href="#DejaVuSans-57" transform="translate(2802.25 0)"/>
     <use xlink:href="#DejaVuSans-48" transform="translate(2841.453125 0)"/>
     <use xlink:href="#DejaVuSans-55" transform="translate(2902.984375 0)"/>
     <use xlink:href="#DejaVuSans-51" transform="translate(2942.34375 0)"/>
     <use xlink:href="#DejaVuSans-44" transform="translate(3005.71875 0)"/>
     <use xlink:href="#DejaVuSans-57" transform="translate(3067 0)"/>
     <use xlink:href="#DejaVuSans-4c" transform="translate(3106.203125 0)"/>
     <use xlink:href="#DejaVuSans-52" transform="translate(3133.984375 0)"/>
     <use xlink:href="#DejaVuSans-51" transform="translate(3195.171875 0)"/>
     <use xlink:href="#DejaVuSans-56" transform="translate(3258.546875 0)"/>
     <use xlink:href="#DejaVuSans-3" transform="translate(3310.640625 0)"/>
     <use xlink:href="#DejaVuSans-b" transform="translate(3342.421875 0)"/>
     <use xlink:href="#DejaVuSans-55" transform="translate(3381.4375 0)"/>
     <use xlink:href="#DejaVuSans-48" transform="translate(3420.34375 0)"/>
     <use xlink:href="#DejaVuSans-47" transform="translate(3481.875 0)"/>
     <use xlink:href="#DejaVuSans-3" transform="translate(3545.359375 0)"/>
     <use xlink:href="#DejaVuSans-50" transform="translate(3577.140625 0)"/>
     <use xlink:href="#DejaVuSans-44" transform="translate(3674.546875 0)"/>
     <use xlink:href="#DejaVuSans-55" transform="translate(3735.828125 0)"/>
     <use xlink:href="#DejaVuSans-4e" transform="translate(3776.9375 0)"/>
     <use xlink:href="#DejaVuSans-56" transform="translate(3834.84375 0)"/>
     <use xlink:href="#DejaVuSans-c" transform="translate(3886.9375 0)"/>
     <use xlink:href="#DejaVuSans-3" transform="translate(3925.953125 0)"/>
     <use xlink:href="#DejaVuSans-af6" transform="translate(3957.734375 0)"/>
     <use xlink:href="#DejaVuSans-3" transform="translate(4057.734375 0)"/>
     <use xlink:href="#DejaVuSans-49" transform="translate(4089.515625 0)"/>
     <use xlink:href="#DejaVuSans-52" transform="translate(4124.71875 0)"/>
     <use xlink:href="#DejaVuSans-55" transform="translate(4185.90625 0)"/>
     <use xlink:href="#DejaVuSans-46" transform="translate(4224.8125 0)"/>
     <use xlink:href="#DejaVuSans-48" transform="translate(4279.796875 0)"/>
     <use xlink:href="#DejaVuSans-47" transform="translate(4341.328125 0)"/>
     <use xlink:href="#DejaVuSans-3" transform="translate(4404.8125 0)"/>
     <use xlink:href="#DejaVuSans-45" transform="translate(4436.59375 0)"/>
     <use xlink:href="#DejaVuSans-5c" transform="translate(4500.078125 0)"/>
     <use xlink:href="#DejaVuSans-3" transform="translate(4559.265625 0)"/>
     <use xlink:href="#DejaVuSans-26" transform="translate(4591.046875 0)"/>
     <use xlink:href="#DejaVuSans-14" transform="translate(4660.875 0)"/>
     <use xlink:href="#DejaVuSans-af5" transform="translate(4724.5 0)"/>
     <use xlink:href="#DejaVuSans-26" transform="translate(4774.5 0)"/>
     <use xlink:href="#DejaVuSans-18" transform="translate(4844.328125 0)"/>
     <use xlink:href="#DejaVuSans-f" transform="translate(4907.953125 0)"/>
     <use xlink:href="#DejaVuSans-3" transform="translate(4939.734375 0)"/>
     <use xlink:href="#DejaVuSans-51" transform="translate(4971.515625 0)"/>
     <use xlink:href="#DejaVuSans-52" transform="translate(5034.890625 0)"/>
     <use xlink:href="#DejaVuSans-57" transform="translate(5096.078125 0)"/>
     <use xlink:href="#DejaVuSans-3" transform="translate(5135.28125 0)"/>
     <use xlink:href="#DejaVuSans-44" transform="translate(5167.0625 0)"/>
     <use xlink:href="#DejaVuSans-3" transform="translate(5228.34375 0)"/>
     <use xlink:href="#DejaVuSans-47" transform="translate(5260.125 0)"/>
     <use xlink:href="#DejaVuSans-48" transform="translate(5323.609375 0)"/>
     <use xlink:href="#DejaVuSans-56" transform="translate(5385.140625 0)"/>
     <use xlink:href="#DejaVuSans-4c" transform="translate(5437.234375 0)"/>
     <use xlink:href="#DejaVuSans-4a" transform="translate(5465.015625 0)"/>
     <use xlink:href="#DejaVuSans-51" transform="translate(5528.5 0)"/>
     <use xlink:href="#DejaVuSans-3" transform="translate(5591.875 0)"/>
     <use xlink:href="#DejaVuSans-46" transform="translate(5623.65625 0)"/>
     <use xlink:href="#DejaVuSans-4b" transform="translate(5678.640625 0)"/>
     <use xlink:href="#DejaVuSans-52" transform="translate(5742.015625 0)"/>
     <use xlink:href="#DejaVuSans-4c" transform="translate(5803.203125 0)"/>
     <use xlink:href="#DejaVuSans-46" transform="translate(5830.984375 0)"/>
     <use xlink:href="#DejaVuSans-48" transform="translate(5885.96875 0)"/>
    </g>
   </g>
   <g id="text_66">
    <!-- pair position 1–32 (pair p = King Wen sequence positions 2p−1, 2p; class = popcount parity, E = even, O = odd; first pair {63, 0} is even — pinned by C4) -->
    <g style="fill: #555555" transform="translate(222.810469 172.288242) scale(0.09 -0.09)">
     <defs>
      <path id="DejaVuSans-20" d="M 678 2906 
L 4684 2906 
L 4684 2381 
L 678 2381 
L 678 2906 
z
M 678 1631 
L 4684 1631 
L 4684 1100 
L 678 1100 
L 678 1631 
z
" transform="scale(0.015625)"/>
      <path id="DejaVuSans-54" d="M 947 1747 
Q 947 1113 1208 752 
Q 1469 391 1925 391 
Q 2381 391 2643 752 
Q 2906 1113 2906 1747 
Q 2906 2381 2643 2742 
Q 2381 3103 1925 3103 
Q 1469 3103 1208 2742 
Q 947 2381 947 1747 
z
M 2906 525 
Q 2725 213 2448 61 
Q 2172 -91 1784 -91 
Q 1150 -91 751 415 
Q 353 922 353 1747 
Q 353 2572 751 3078 
Q 1150 3584 1784 3584 
Q 2172 3584 2448 3432 
Q 2725 3281 2906 2969 
L 2906 3500 
L 3481 3500 
L 3481 -1331 
L 2906 -1331 
L 2906 525 
z
" transform="scale(0.015625)"/>
      <path id="DejaVuSans-58" d="M 544 1381 
L 544 3500 
L 1119 3500 
L 1119 1403 
Q 1119 906 1312 657 
Q 1506 409 1894 409 
Q 2359 409 2629 706 
Q 2900 1003 2900 1516 
L 2900 3500 
L 3475 3500 
L 3475 0 
L 2900 0 
L 2900 538 
Q 2691 219 2414 64 
Q 2138 -91 1772 -91 
Q 1169 -91 856 284 
Q 544 659 544 1381 
z
M 1991 3584 
L 1991 3584 
z
" transform="scale(0.015625)"/>
      <path id="DejaVuSans-c9c" d="M 678 2272 
L 4684 2272 
L 4684 1741 
L 678 1741 
L 678 2272 
z
" transform="scale(0.015625)"/>
      <path id="DejaVuSans-1e" d="M 750 3309 
L 1409 3309 
L 1409 2516 
L 750 2516 
L 750 3309 
z
M 750 794 
L 1409 794 
L 1409 256 
L 897 -744 
L 494 -744 
L 750 256 
L 750 794 
z
" transform="scale(0.015625)"/>
      <path id="DejaVuSans-59" d="M 191 3500 
L 800 3500 
L 1894 563 
L 2988 3500 
L 3597 3500 
L 2284 0 
L 1503 0 
L 191 3500 
z
" transform="scale(0.015625)"/>
      <path id="DejaVuSans-13af" d="M 3431 3500 
L 3431 0 
L 2853 0 
L 2853 3053 
L 1275 3053 
L 1275 0 
L 697 0 
L 697 3053 
L 147 3053 
L 147 3500 
L 697 3500 
L 697 3744 
Q 697 4316 967 4589 
Q 1238 4863 1797 4863 
L 2375 4863 
L 2375 4384 
L 1825 4384 
Q 1516 4384 1395 4259 
Q 1275 4134 1275 3809 
L 1275 3500 
L 3431 3500 
z
M 2853 4856 
L 3431 4856 
L 3431 4128 
L 2853 4128 
L 2853 4856 
z
" transform="scale(0.015625)"/>
      <path id="DejaVuSans-5e" d="M 3272 -594 
L 3272 -1044 
L 3078 -1044 
Q 2300 -1044 2036 -812 
Q 1772 -581 1772 109 
L 1772 856 
Q 1772 1328 1603 1509 
Q 1434 1691 991 1691 
L 800 1691 
L 800 2138 
L 991 2138 
Q 1438 2138 1605 2317 
Q 1772 2497 1772 2963 
L 1772 3713 
Q 1772 4403 2036 4633 
Q 2300 4863 3078 4863 
L 3272 4863 
L 3272 4416 
L 3059 4416 
Q 2619 4416 2484 4278 
Q 2350 4141 2350 3700 
L 2350 2925 
Q 2350 2434 2208 2212 
Q 2066 1991 1722 1913 
Q 2069 1828 2209 1606 
Q 2350 1384 2350 897 
L 2350 122 
Q 2350 -319 2484 -456 
Q 2619 -594 3059 -594 
L 3272 -594 
z
" transform="scale(0.015625)"/>
      <path id="DejaVuSans-60" d="M 800 -594 
L 1019 -594 
Q 1456 -594 1589 -459 
Q 1722 -325 1722 122 
L 1722 897 
Q 1722 1384 1862 1606 
Q 2003 1828 2350 1913 
Q 2003 1991 1862 2212 
Q 1722 2434 1722 2925 
L 1722 3700 
Q 1722 4144 1589 4280 
Q 1456 4416 1019 4416 
L 800 4416 
L 800 4863 
L 997 4863 
Q 1775 4863 2036 4633 
Q 2297 4403 2297 3713 
L 2297 2963 
Q 2297 2497 2465 2317 
Q 2634 2138 3078 2138 
L 3272 2138 
L 3272 1691 
L 3078 1691 
Q 2634 1691 2465 1509 
Q 2297 1328 2297 856 
L 2297 109 
Q 2297 -581 2036 -812 
Q 1775 -1044 997 -1044 
L 800 -1044 
L 800 -594 
z
" transform="scale(0.015625)"/>
     </defs>
     <use xlink:href="#DejaVuSans-53"/>
     <use xlink:href="#DejaVuSans-44" transform="translate(63.484375 0)"/>
     <use xlink:href="#DejaVuSans-4c" transform="translate(124.765625 0)"/>
     <use xlink:href="#DejaVuSans-55" transform="translate(152.546875 0)"/>
     <use xlink:href="#DejaVuSans-3" transform="translate(193.65625 0)"/>
     <use xlink:href="#DejaVuSans-53" transform="translate(225.4375 0)"/>
     <use xlink:href="#DejaVuSans-52" transform="translate(288.921875 0)"/>
     <use xlink:href="#DejaVuSans-56" transform="translate(350.109375 0)"/>
     <use xlink:href="#DejaVuSans-4c" transform="translate(402.203125 0)"/>
     <use xlink:href="#DejaVuSans-57" transform="translate(429.984375 0)"/>
     <use xlink:href="#DejaVuSans-4c" transform="translate(469.1875 0)"/>
     <use xlink:href="#DejaVuSans-52" transform="translate(496.96875 0)"/>
     <use xlink:href="#DejaVuSans-51" transform="translate(558.15625 0)"/>
     <use xlink:href="#DejaVuSans-3" transform="translate(621.53125 0)"/>
     <use xlink:href="#DejaVuSans-14" transform="translate(653.3125 0)"/>
     <use xlink:href="#DejaVuSans-af5" transform="translate(716.9375 0)"/>
     <use xlink:href="#DejaVuSans-16" transform="translate(766.9375 0)"/>
     <use xlink:href="#DejaVuSans-15" transform="translate(830.5625 0)"/>
     <use xlink:href="#DejaVuSans-3" transform="translate(894.1875 0)"/>
     <use xlink:href="#DejaVuSans-b" transform="translate(925.96875 0)"/>
     <use xlink:href="#DejaVuSans-53" transform="translate(964.984375 0)"/>
     <use xlink:href="#DejaVuSans-44" transform="translate(1028.46875 0)"/>
     <use xlink:href="#DejaVuSans-4c" transform="translate(1089.75 0)"/>
     <use xlink:href="#DejaVuSans-55" transform="translate(1117.53125 0)"/>
     <use xlink:href="#DejaVuSans-3" transform="translate(1158.640625 0)"/>
     <use xlink:href="#DejaVuSans-53" transform="translate(1190.421875 0)"/>
     <use xlink:href="#DejaVuSans-3" transform="translate(1253.90625 0)"/>
     <use xlink:href="#DejaVuSans-20" transform="translate(1285.6875 0)"/>
     <use xlink:href="#DejaVuSans-3" transform="translate(1369.484375 0)"/>
     <use xlink:href="#DejaVuSans-2e" transform="translate(1401.265625 0)"/>
     <use xlink:href="#DejaVuSans-4c" transform="translate(1466.84375 0)"/>
     <use xlink:href="#DejaVuSans-51" transform="translate(1494.625 0)"/>
     <use xlink:href="#DejaVuSans-4a" transform="translate(1558 0)"/>
     <use xlink:href="#DejaVuSans-3" transform="translate(1621.484375 0)"/>
     <use xlink:href="#DejaVuSans-3a" transform="translate(1653.265625 0)"/>
     <use xlink:href="#DejaVuSans-48" transform="translate(1746.28125 0)"/>
     <use xlink:href="#DejaVuSans-51" transform="translate(1807.8125 0)"/>
     <use xlink:href="#DejaVuSans-3" transform="translate(1871.1875 0)"/>
     <use xlink:href="#DejaVuSans-56" transform="translate(1902.96875 0)"/>
     <use xlink:href="#DejaVuSans-48" transform="translate(1955.0625 0)"/>
     <use xlink:href="#DejaVuSans-54" transform="translate(2016.59375 0)"/>
     <use xlink:href="#DejaVuSans-58" transform="translate(2080.078125 0)"/>
     <use xlink:href="#DejaVuSans-48" transform="translate(2143.453125 0)"/>
     <use xlink:href="#DejaVuSans-51" transform="translate(2204.984375 0)"/>
     <use xlink:href="#DejaVuSans-46" transform="translate(2268.359375 0)"/>
     <use xlink:href="#DejaVuSans-48" transform="translate(2323.34375 0)"/>
     <use xlink:href="#DejaVuSans-3" transform="translate(2384.875 0)"/>
     <use xlink:href="#DejaVuSans-53" transform="translate(2416.65625 0)"/>
     <use xlink:href="#DejaVuSans-52" transform="translate(2480.140625 0)"/>
     <use xlink:href="#DejaVuSans-56" transform="translate(2541.328125 0)"/>
     <use xlink:href="#DejaVuSans-4c" transform="translate(2593.421875 0)"/>
     <use xlink:href="#DejaVuSans-57" transform="translate(2621.203125 0)"/>
     <use xlink:href="#DejaVuSans-4c" transform="translate(2660.40625 0)"/>
     <use xlink:href="#DejaVuSans-52" transform="translate(2688.1875 0)"/>
     <use xlink:href="#DejaVuSans-51" transform="translate(2749.375 0)"/>
     <use xlink:href="#DejaVuSans-56" transform="translate(2812.75 0)"/>
     <use xlink:href="#DejaVuSans-3" transform="translate(2864.84375 0)"/>
     <use xlink:href="#DejaVuSans-15" transform="translate(2896.625 0)"/>
     <use xlink:href="#DejaVuSans-53" transform="translate(2960.25 0)"/>
     <use xlink:href="#DejaVuSans-c9c" transform="translate(3023.734375 0)"/>
     <use xlink:href="#DejaVuSans-14" transform="translate(3107.53125 0)"/>
     <use xlink:href="#DejaVuSans-f" transform="translate(3171.15625 0)"/>
     <use xlink:href="#DejaVuSans-3" transform="translate(3202.9375 0)"/>
     <use xlink:href="#DejaVuSans-15" transform="translate(3234.71875 0)"/>
     <use xlink:href="#DejaVuSans-53" transform="translate(3298.34375 0)"/>
     <use xlink:href="#DejaVuSans-1e" transform="translate(3361.828125 0)"/>
     <use xlink:href="#DejaVuSans-3" transform="translate(3395.515625 0)"/>
     <use xlink:href="#DejaVuSans-46" transform="translate(3427.296875 0)"/>
     <use xlink:href="#DejaVuSans-4f" transform="translate(3482.28125 0)"/>
     <use xlink:href="#DejaVuSans-44" transform="translate(3510.0625 0)"/>
     <use xlink:href="#DejaVuSans-56" transform="translate(3571.34375 0)"/>
     <use xlink:href="#DejaVuSans-56" transform="translate(3623.4375 0)"/>
     <use xlink:href="#DejaVuSans-3" transform="translate(3675.53125 0)"/>
     <use xlink:href="#DejaVuSans-20" transform="translate(3707.3125 0)"/>
     <use xlink:href="#DejaVuSans-3" transform="translate(3791.109375 0)"/>
     <use xlink:href="#DejaVuSans-53" transform="translate(3822.890625 0)"/>
     <use xlink:href="#DejaVuSans-52" transform="translate(3886.375 0)"/>
     <use xlink:href="#DejaVuSans-53" transform="translate(3947.5625 0)"/>
     <use xlink:href="#DejaVuSans-46" transform="translate(4011.046875 0)"/>
     <use xlink:href="#DejaVuSans-52" transform="translate(4066.03125 0)"/>
     <use xlink:href="#DejaVuSans-58" transform="translate(4127.21875 0)"/>
     <use xlink:href="#DejaVuSans-51" transform="translate(4190.59375 0)"/>
     <use xlink:href="#DejaVuSans-57" transform="translate(4253.96875 0)"/>
     <use xlink:href="#DejaVuSans-3" transform="translate(4293.171875 0)"/>
     <use xlink:href="#DejaVuSans-53" transform="translate(4324.953125 0)"/>
     <use xlink:href="#DejaVuSans-44" transform="translate(4388.4375 0)"/>
     <use xlink:href="#DejaVuSans-55" transform="translate(4449.71875 0)"/>
     <use xlink:href="#DejaVuSans-4c" transform="translate(4490.828125 0)"/>
     <use xlink:href="#DejaVuSans-57" transform="translate(4518.609375 0)"/>
     <use xlink:href="#DejaVuSans-5c" transform="translate(4557.8125 0)"/>
     <use xlink:href="#DejaVuSans-f" transform="translate(4617 0)"/>
     <use xlink:href="#DejaVuSans-3" transform="translate(4648.78125 0)"/>
     <use xlink:href="#DejaVuSans-28" transform="translate(4680.5625 0)"/>
     <use xlink:href="#DejaVuSans-3" transform="translate(4743.75 0)"/>
     <use xlink:href="#DejaVuSans-20" transform="translate(4775.53125 0)"/>
     <use xlink:href="#DejaVuSans-3" transform="translate(4859.328125 0)"/>
     <use xlink:href="#DejaVuSans-48" transform="translate(4891.109375 0)"/>
     <use xlink:href="#DejaVuSans-59" transform="translate(4952.640625 0)"/>
     <use xlink:href="#DejaVuSans-48" transform="translate(5011.828125 0)"/>
     <use xlink:href="#DejaVuSans-51" transform="translate(5073.359375 0)"/>
     <use xlink:href="#DejaVuSans-f" transform="translate(5136.734375 0)"/>
     <use xlink:href="#DejaVuSans-3" transform="translate(5168.515625 0)"/>
     <use xlink:href="#DejaVuSans-32" transform="translate(5200.296875 0)"/>
     <use xlink:href="#DejaVuSans-3" transform="translate(5279.015625 0)"/>
     <use xlink:href="#DejaVuSans-20" transform="translate(5310.796875 0)"/>
     <use xlink:href="#DejaVuSans-3" transform="translate(5394.59375 0)"/>
     <use xlink:href="#DejaVuSans-52" transform="translate(5426.375 0)"/>
     <use xlink:href="#DejaVuSans-47" transform="translate(5487.5625 0)"/>
     <use xlink:href="#DejaVuSans-47" transform="translate(5551.046875 0)"/>
     <use xlink:href="#DejaVuSans-1e" transform="translate(5614.53125 0)"/>
     <use xlink:href="#DejaVuSans-3" transform="translate(5648.21875 0)"/>
     <use xlink:href="#DejaVuSans-13af" transform="translate(5680 0)"/>
     <use xlink:href="#DejaVuSans-55" transform="translate(5742.984375 0)"/>
     <use xlink:href="#DejaVuSans-56" transform="translate(5784.09375 0)"/>
     <use xlink:href="#DejaVuSans-57" transform="translate(5836.1875 0)"/>
     <use xlink:href="#DejaVuSans-3" transform="translate(5875.390625 0)"/>
     <use xlink:href="#DejaVuSans-53" transform="translate(5907.171875 0)"/>
     <use xlink:href="#DejaVuSans-44" transform="translate(5970.65625 0)"/>
     <use xlink:href="#DejaVuSans-4c" transform="translate(6031.9375 0)"/>
     <use xlink:href="#DejaVuSans-55" transform="translate(6059.71875 0)"/>
     <use xlink:href="#DejaVuSans-3" transform="translate(6100.828125 0)"/>
     <use xlink:href="#DejaVuSans-5e" transform="translate(6132.609375 0)"/>
     <use xlink:href="#DejaVuSans-19" transform="translate(6196.234375 0)"/>
     <use xlink:href="#DejaVuSans-16" transform="translate(6259.859375 0)"/>
     <use xlink:href="#DejaVuSans-f" transform="translate(6323.484375 0)"/>
     <use xlink:href="#DejaVuSans-3" transform="translate(6355.265625 0)"/>
     <use xlink:href="#DejaVuSans-13" transform="translate(6387.046875 0)"/>
     <use xlink:href="#DejaVuSans-60" transform="translate(6450.671875 0)"/>
     <use xlink:href="#DejaVuSans-3" transform="translate(6514.296875 0)"/>
     <use xlink:href="#DejaVuSans-4c" transform="translate(6546.078125 0)"/>
     <use xlink:href="#DejaVuSans-56" transform="translate(6573.859375 0)"/>
     <use xlink:href="#DejaVuSans-3" transform="translate(6625.953125 0)"/>
     <use xlink:href="#DejaVuSans-48" transform="translate(6657.734375 0)"/>
     <use xlink:href="#DejaVuSans-59" transform="translate(6719.265625 0)"/>
     <use xlink:href="#DejaVuSans-48" transform="translate(6778.453125 0)"/>
     <use xlink:href="#DejaVuSans-51" transform="translate(6839.984375 0)"/>
     <use xlink:href="#DejaVuSans-3" transform="translate(6903.359375 0)"/>
     <use xlink:href="#DejaVuSans-af6" transform="translate(6935.140625 0)"/>
     <use xlink:href="#DejaVuSans-3" transform="translate(7035.140625 0)"/>
     <use xlink:href="#DejaVuSans-53" transform="translate(7066.921875 0)"/>
     <use xlink:href="#DejaVuSans-4c" transform="translate(7130.40625 0)"/>
     <use xlink:href="#DejaVuSans-51" transform="translate(7158.1875 0)"/>
     <use xlink:href="#DejaVuSans-51" transform="translate(7221.5625 0)"/>
     <use xlink:href="#DejaVuSans-48" transform="translate(7284.9375 0)"/>
     <use xlink:href="#DejaVuSans-47" transform="translate(7346.46875 0)"/>
     <use xlink:href="#DejaVuSans-3" transform="translate(7409.953125 0)"/>
     <use xlink:href="#DejaVuSans-45" transform="translate(7441.734375 0)"/>
     <use xlink:href="#DejaVuSans-5c" transform="translate(7505.21875 0)"/>
     <use xlink:href="#DejaVuSans-3" transform="translate(7564.40625 0)"/>
     <use xlink:href="#DejaVuSans-26" transform="translate(7596.1875 0)"/>
     <use xlink:href="#DejaVuSans-17" transform="translate(7666.015625 0)"/>
     <use xlink:href="#DejaVuSans-c" transform="translate(7729.640625 0)"/>
    </g>
   </g>
   <g id="line2d_1">
    <path d="M 120.24 134.7 
L 120.24 52.2 
" clip-path="url(#p130fbfee38)" style="fill: none; stroke: #d32f2f; stroke-width: 2.2; stroke-linecap: square"/>
   </g>
   <g id="line2d_2">
    <path d="M 120.24 46.2 
" clip-path="url(#p130fbfee38)" style="fill: none; stroke: #d32f2f; stroke-width: 1.5; stroke-linecap: square"/>
    <defs>
     <path id="m0d3d15e9a2" d="M -0 3 
L 3 -3 
L -3 -3 
z
" style="stroke: #d32f2f; stroke-linejoin: miter"/>
    </defs>
    <g clip-path="url(#p130fbfee38)">
     <use xlink:href="#m0d3d15e9a2" x="120.24" y="46.2" style="fill: #d32f2f; stroke: #d32f2f; stroke-linejoin: miter"/>
    </g>
   </g>
   <g id="line2d_3">
    <path d="M 328.28908 134.7 
L 328.28908 52.2 
" clip-path="url(#p130fbfee38)" style="fill: none; stroke: #d32f2f; stroke-width: 2.2; stroke-linecap: square"/>
   </g>
   <g id="line2d_4">
    <path d="M 328.28908 46.2 
" clip-path="url(#p130fbfee38)" style="fill: none; stroke: #d32f2f; stroke-width: 1.5; stroke-linecap: square"/>
    <g clip-path="url(#p130fbfee38)">
     <use xlink:href="#m0d3d15e9a2" x="328.28908" y="46.2" style="fill: #d32f2f; stroke: #d32f2f; stroke-linejoin: miter"/>
    </g>
   </g>
   <g id="line2d_5">
    <path d="M 362.963926 134.7 
L 362.963926 52.2 
" clip-path="url(#p130fbfee38)" style="fill: none; stroke: #d32f2f; stroke-width: 2.2; stroke-linecap: square"/>
   </g>
   <g id="line2d_6">
    <path d="M 362.963926 46.2 
" clip-path="url(#p130fbfee38)" style="fill: none; stroke: #d32f2f; stroke-width: 1.5; stroke-linecap: square"/>
    <g clip-path="url(#p130fbfee38)">
     <use xlink:href="#m0d3d15e9a2" x="362.963926" y="46.2" style="fill: #d32f2f; stroke: #d32f2f; stroke-linejoin: miter"/>
    </g>
   </g>
   <g id="line2d_7">
    <path d="M 432.31362 134.7 
L 432.31362 52.2 
" clip-path="url(#p130fbfee38)" style="fill: none; stroke: #d32f2f; stroke-width: 2.2; stroke-linecap: square"/>
   </g>
   <g id="line2d_8">
    <path d="M 432.31362 46.2 
" clip-path="url(#p130fbfee38)" style="fill: none; stroke: #d32f2f; stroke-width: 1.5; stroke-linecap: square"/>
    <g clip-path="url(#p130fbfee38)">
     <use xlink:href="#m0d3d15e9a2" x="432.31362" y="46.2" style="fill: #d32f2f; stroke: #d32f2f; stroke-linejoin: miter"/>
    </g>
   </g>
   <g id="line2d_9">
    <path d="M 536.33816 134.7 
L 536.33816 52.2 
" clip-path="url(#p130fbfee38)" style="fill: none; stroke: #d32f2f; stroke-width: 2.2; stroke-linecap: square"/>
   </g>
   <g id="line2d_10">
    <path d="M 536.33816 46.2 
" clip-path="url(#p130fbfee38)" style="fill: none; stroke: #d32f2f; stroke-width: 1.5; stroke-linecap: square"/>
    <g clip-path="url(#p130fbfee38)">
     <use xlink:href="#m0d3d15e9a2" x="536.33816" y="46.2" style="fill: #d32f2f; stroke: #d32f2f; stroke-linejoin: miter"/>
    </g>
   </g>
   <g id="line2d_11">
    <path d="M 571.013006 134.7 
L 571.013006 52.2 
" clip-path="url(#p130fbfee38)" style="fill: none; stroke: #d32f2f; stroke-width: 2.2; stroke-linecap: square"/>
   </g>
   <g id="line2d_12">
    <path d="M 571.013006 46.2 
" clip-path="url(#p130fbfee38)" style="fill: none; stroke: #d32f2f; stroke-width: 1.5; stroke-linecap: square"/>
    <g clip-path="url(#p130fbfee38)">
     <use xlink:href="#m0d3d15e9a2" x="571.013006" y="46.2" style="fill: #d32f2f; stroke: #d32f2f; stroke-linejoin: miter"/>
    </g>
   </g>
   <g id="line2d_13">
    <path d="M 709.712393 134.7 
L 709.712393 52.2 
" clip-path="url(#p130fbfee38)" style="fill: none; stroke: #d32f2f; stroke-width: 2.2; stroke-linecap: square"/>
   </g>
   <g id="line2d_14">
    <path d="M 709.712393 46.2 
" clip-path="url(#p130fbfee38)" style="fill: none; stroke: #d32f2f; stroke-width: 1.5; stroke-linecap: square"/>
    <g clip-path="url(#p130fbfee38)">
     <use xlink:href="#m0d3d15e9a2" x="709.712393" y="46.2" style="fill: #d32f2f; stroke: #d32f2f; stroke-linejoin: miter"/>
    </g>
   </g>
   <g id="line2d_15">
    <path d="M 779.062086 134.7 
L 779.062086 52.2 
" clip-path="url(#p130fbfee38)" style="fill: none; stroke: #d32f2f; stroke-width: 2.2; stroke-linecap: square"/>
   </g>
   <g id="line2d_16">
    <path d="M 779.062086 46.2 
" clip-path="url(#p130fbfee38)" style="fill: none; stroke: #d32f2f; stroke-width: 1.5; stroke-linecap: square"/>
    <g clip-path="url(#p130fbfee38)">
     <use xlink:href="#m0d3d15e9a2" x="779.062086" y="46.2" style="fill: #d32f2f; stroke: #d32f2f; stroke-linejoin: miter"/>
    </g>
   </g>
   <g id="line2d_17">
    <path d="M 813.736933 134.7 
L 813.736933 52.2 
" clip-path="url(#p130fbfee38)" style="fill: none; stroke: #d32f2f; stroke-width: 2.2; stroke-linecap: square"/>
   </g>
   <g id="line2d_18">
    <path d="M 813.736933 46.2 
" clip-path="url(#p130fbfee38)" style="fill: none; stroke: #d32f2f; stroke-width: 1.5; stroke-linecap: square"/>
    <g clip-path="url(#p130fbfee38)">
     <use xlink:href="#m0d3d15e9a2" x="813.736933" y="46.2" style="fill: #d32f2f; stroke: #d32f2f; stroke-linejoin: miter"/>
    </g>
   </g>
   <g id="line2d_19">
    <path d="M 848.411779 134.7 
L 848.411779 52.2 
" clip-path="url(#p130fbfee38)" style="fill: none; stroke: #d32f2f; stroke-width: 2.2; stroke-linecap: square"/>
   </g>
   <g id="line2d_20">
    <path d="M 848.411779 46.2 
" clip-path="url(#p130fbfee38)" style="fill: none; stroke: #d32f2f; stroke-width: 1.5; stroke-linecap: square"/>
    <g clip-path="url(#p130fbfee38)">
     <use xlink:href="#m0d3d15e9a2" x="848.411779" y="46.2" style="fill: #d32f2f; stroke: #d32f2f; stroke-linejoin: miter"/>
    </g>
   </g>
   <g id="line2d_21">
    <path d="M 917.761472 134.7 
L 917.761472 52.2 
" clip-path="url(#p130fbfee38)" style="fill: none; stroke: #d32f2f; stroke-width: 2.2; stroke-linecap: square"/>
   </g>
   <g id="line2d_22">
    <path d="M 917.761472 46.2 
" clip-path="url(#p130fbfee38)" style="fill: none; stroke: #d32f2f; stroke-width: 1.5; stroke-linecap: square"/>
    <g clip-path="url(#p130fbfee38)">
     <use xlink:href="#m0d3d15e9a2" x="917.761472" y="46.2" style="fill: #d32f2f; stroke: #d32f2f; stroke-linejoin: miter"/>
    </g>
   </g>
   <g id="line2d_23">
    <path d="M 987.111166 134.7 
L 987.111166 52.2 
" clip-path="url(#p130fbfee38)" style="fill: none; stroke: #d32f2f; stroke-width: 2.2; stroke-linecap: square"/>
   </g>
   <g id="line2d_24">
    <path d="M 987.111166 46.2 
" clip-path="url(#p130fbfee38)" style="fill: none; stroke: #d32f2f; stroke-width: 1.5; stroke-linecap: square"/>
    <g clip-path="url(#p130fbfee38)">
     <use xlink:href="#m0d3d15e9a2" x="987.111166" y="46.2" style="fill: #d32f2f; stroke: #d32f2f; stroke-linejoin: miter"/>
    </g>
   </g>
   <g id="line2d_25">
    <path d="M 1021.786012 134.7 
L 1021.786012 52.2 
" clip-path="url(#p130fbfee38)" style="fill: none; stroke: #d32f2f; stroke-width: 2.2; stroke-linecap: square"/>
   </g>
   <g id="line2d_26">
    <path d="M 1021.786012 46.2 
" clip-path="url(#p130fbfee38)" style="fill: none; stroke: #d32f2f; stroke-width: 1.5; stroke-linecap: square"/>
    <g clip-path="url(#p130fbfee38)">
     <use xlink:href="#m0d3d15e9a2" x="1021.786012" y="46.2" style="fill: #d32f2f; stroke: #d32f2f; stroke-linejoin: miter"/>
    </g>
   </g>
   <g id="line2d_27">
    <path d="M 1056.460859 134.7 
L 1056.460859 52.2 
" clip-path="url(#p130fbfee38)" style="fill: none; stroke: #d32f2f; stroke-width: 2.2; stroke-linecap: square"/>
   </g>
   <g id="line2d_28">
    <path d="M 1056.460859 46.2 
" clip-path="url(#p130fbfee38)" style="fill: none; stroke: #d32f2f; stroke-width: 1.5; stroke-linecap: square"/>
    <g clip-path="url(#p130fbfee38)">
     <use xlink:href="#m0d3d15e9a2" x="1056.460859" y="46.2" style="fill: #d32f2f; stroke: #d32f2f; stroke-linejoin: miter"/>
    </g>
   </g>
   <g id="line2d_29">
    <path d="M 1091.135706 134.7 
L 1091.135706 52.2 
" clip-path="url(#p130fbfee38)" style="fill: none; stroke: #d32f2f; stroke-width: 2.2; stroke-linecap: square"/>
   </g>
   <g id="line2d_30">
    <path d="M 1091.135706 46.2 
" clip-path="url(#p130fbfee38)" style="fill: none; stroke: #d32f2f; stroke-width: 1.5; stroke-linecap: square"/>
    <g clip-path="url(#p130fbfee38)">
     <use xlink:href="#m0d3d15e9a2" x="1091.135706" y="46.2" style="fill: #d32f2f; stroke: #d32f2f; stroke-linejoin: miter"/>
    </g>
   </g>
  </g>
 </g>
 <defs>
  <clipPath id="p130fbfee38">
   <rect x="7.2" y="7.2" width="1130.4" height="180"/>
  </clipPath>
 </defs>
</svg>
